<svg width="182" height="173" viewBox="0 0 182 173" fill="none" xmlns="http://www.w3.org/2000/svg">
<path d="M38.3182 46.3369L38.3662 46.3609C39.9198 46.9428 41.5395 46.5889 43.1291 46.6368C43.9029 46.6608 44.7846 46.9968 45.4805 46.3129C45.4925 41.6101 45.5224 36.9073 45.5164 32.2044C45.5044 22.055 45.4805 11.9055 45.4625 1.75602C45.3245 1.4261 45.1085 1.48611 44.8746 1.64207C44.7006 1.63007 44.5267 1.61806 44.3587 1.61206C43.351 1.29414 42.3372 1.37212 41.3235 1.55808C40.9396 1.55208 40.5617 1.55209 40.1778 1.54609C38.0963 1.26416 38.0123 1.32414 38.1503 2.94374C38.1443 4.71929 38.1443 6.50086 38.1383 8.27641C38.1383 8.37839 38.1323 8.47437 38.1323 8.57634C38.1383 11.6416 38.1383 14.7068 38.1443 17.772C38.1083 18.4079 38.0363 19.0497 38.0363 19.6856C38.0243 25.7621 38.0183 31.8385 38.0363 37.909C38.0423 39.1387 37.9043 40.3744 38.1623 41.5981C38.1743 42.3719 38.1863 43.1397 38.1983 43.9135C38.0543 44.0395 38.0543 44.1655 38.2103 44.2794C38.2043 44.4594 38.2043 44.6333 38.1983 44.8133C38.0363 45.3352 37.8324 45.863 38.3182 46.3369ZM144.786 46.3249C144.84 45.941 144.942 45.5511 144.942 45.1672C144.972 40.6264 145.008 36.0855 144.984 31.5386C144.978 30.117 145.164 28.6773 144.828 27.2677C145.026 26.062 144.564 25.7261 143.316 25.7441C138.427 25.828 133.539 25.804 128.656 25.756C127.744 25.75 127.492 25.978 127.498 26.8898C127.546 33.3562 127.534 39.8225 127.546 46.2889C127.744 46.8048 128.2 46.6309 128.56 46.6309C133.628 46.6488 138.697 46.6549 143.76 46.6489C144.126 46.6609 144.582 46.8348 144.786 46.3249ZM174.478 26.038C174.1 26.038 173.722 26.038 173.345 26.032C171.641 25.774 169.937 25.7261 168.234 26.026C167.106 26.116 165.858 25.834 165.403 27.4536C165.319 27.7596 164.875 28.1195 165.019 28.5334C165.193 29.0372 165.702 28.7733 166.05 28.7733C170.705 28.7913 175.36 28.7973 180.015 28.7673C180.555 28.7613 181.353 29.1212 181.587 28.4554C181.796 27.8555 181.239 27.3097 180.777 26.8538C180.345 26.4279 179.925 26.02 179.259 26.062C177.664 25.774 176.068 25.84 174.478 26.038ZM19.387 74.8718C19.309 75.6156 19.8608 75.4717 20.2687 75.4717C22.3382 75.4717 24.4077 75.4537 26.4772 75.4417C27.155 73.6661 26.7231 71.8366 26.7051 70.031C26.7051 65.1782 26.7051 60.3314 26.7051 55.0168C24.0178 57.8001 21.7204 60.2834 19.6029 62.9348C19.387 63.1087 19.291 63.3187 19.3989 63.5886C19.3989 64.9503 19.393 66.3119 19.393 67.6736C19.399 67.7996 19.4049 67.9255 19.4049 68.0515C19.4049 68.6154 19.4049 69.1792 19.4049 69.7431C19.4049 69.8751 19.411 70.007 19.411 70.139C19.411 71.5906 19.411 73.0483 19.411 74.4999C19.405 74.6259 19.399 74.7518 19.387 74.8718ZM0.641631 75.4177C1.00754 75.8556 1.42743 75.7176 1.85332 75.5257C3.51491 75.5257 5.1705 75.5256 6.83209 75.5196C6.96405 75.6456 7.07202 75.6036 7.18 75.4837C8.17575 75.3937 7.78585 74.6079 7.79185 74.122C7.81584 68.0335 7.79785 61.945 7.79785 55.8506C7.82184 55.8146 7.86982 55.7726 7.86383 55.7426C7.85183 55.6586 7.81584 55.5806 7.79185 55.5026C7.38395 54.8788 7.14401 55.4307 6.92207 55.6586C4.84059 57.7581 2.83108 59.9295 0.935553 62.203C0.611634 62.5929 0.557648 62.9828 0.563647 63.4267C0.581642 67.4217 0.617637 71.4227 0.641631 75.4177ZM125.585 12.9732C125.603 11.4316 125.62 9.89001 125.644 8.34839C125.902 7.53259 125.782 6.70479 125.734 5.883C125.195 4.53933 125.554 3.14769 125.525 1.71404C121.655 1.71404 117.804 1.72603 113.947 1.70204C113.354 1.70204 112.898 1.87001 112.556 2.34989C110.408 5.37913 107.709 7.92849 105.292 10.7178C104.914 11.1497 104.734 11.4436 105.202 11.9475C106.563 13.4291 107.877 14.9587 109.299 16.5723C110.066 15.5226 110.63 14.4609 111.458 13.6691C113.563 11.6656 115.549 9.55408 117.403 7.32864C118.05 6.55483 118.602 6.73479 119.142 7.16068C119.808 7.68255 120.408 8.3184 120.93 8.99024C122.327 10.7658 123.761 12.4994 125.459 14.005C126.1 13.741 125.698 13.3391 125.585 12.9732ZM159.308 83.9955C160.016 84.1635 160.724 84.1575 161.432 84.0195C161.815 84.0195 162.205 84.0135 162.589 84.0135C162.865 84.1035 163.117 84.1455 163.189 83.7556C163.195 80.4984 163.183 77.2412 163.231 73.984C163.243 73.1982 163.003 72.9763 162.235 72.9883C157.299 73.0303 152.362 73.0483 147.425 73.0123C146.561 73.0063 146.495 73.3782 146.501 74.062C146.531 76.7733 146.513 79.4907 146.525 82.202C146.525 82.7358 146.573 83.2697 146.267 83.7556C146.483 84.2775 146.843 84.0975 147.197 83.9415C150.334 83.9535 153.472 83.9656 156.609 83.9716C156.741 83.9776 156.867 83.9775 156.999 83.9835C157.772 83.9895 158.54 83.9955 159.308 83.9955ZM54.7062 46.3009C54.7302 44.7233 54.7721 43.1457 54.7721 41.5681C54.7781 35.0477 54.7542 28.5214 54.7841 22.001C54.7901 21.0832 54.5742 20.6873 53.5544 20.7413C51.9768 20.8253 50.3932 20.7893 48.8096 20.7473C47.9938 20.7233 47.6339 20.8373 47.6399 21.857C47.6939 29.1692 47.6459 36.4814 47.6759 43.7936C47.6819 44.6453 47.358 45.5391 47.8559 46.3669C50.1413 46.7328 52.4267 46.7868 54.7062 46.3009ZM164.989 49.0183C164.929 49.0183 164.863 49.0122 164.803 49.0122C164.833 49.1202 164.863 49.2282 164.893 49.3362C164.887 51.3877 164.875 53.4392 164.869 55.4966C164.695 55.6286 164.707 55.7546 164.881 55.8745C164.887 58.028 164.893 60.1815 164.899 62.3349C164.863 65.8441 164.857 69.3532 164.761 72.8563C164.731 73.99 165.121 74.278 166.212 74.266C170.915 74.212 175.618 74.2 180.321 74.26C181.479 74.272 181.748 73.8521 181.725 72.7903C181.653 69.4252 181.671 66.06 181.653 62.6949C181.749 62.083 181.934 61.4711 181.934 60.8593C181.952 57.2122 181.892 53.5651 181.94 49.918C181.952 48.9763 181.635 48.7663 180.765 48.7723C176.23 48.7963 171.695 48.7783 167.16 48.7603C166.416 48.7363 165.69 48.7843 164.989 49.0183ZM26.5672 41.6161C26.8611 41.0762 26.8311 40.5304 26.5912 39.9845C26.5912 35.7856 26.5972 31.5926 26.5972 27.3936C26.8671 25.7441 26.8911 24.1005 26.6032 22.4509C26.5972 20.7293 26.5912 19.0077 26.5852 17.2862C26.8311 16.6383 26.8731 15.9965 26.5612 15.3546C26.5612 14.6948 26.5612 14.035 26.5552 13.3811C26.7951 12.6673 27.0471 11.9535 26.3872 11.3117C24.5097 11.3117 22.6261 11.3476 20.7486 11.2996C19.9328 11.2817 19.6329 11.5036 19.6389 12.3674C19.6629 23.3506 19.6629 34.3339 19.6449 45.3232C19.6449 46.085 19.8369 46.3669 20.6347 46.3369C22.5602 46.2709 24.4917 46.2889 26.4232 46.2709C26.6751 46.2709 26.7771 46.199 26.5672 45.971C26.5672 44.5194 26.5672 43.0677 26.5672 41.6161ZM146.879 28.7553C146.897 34.148 146.951 39.5406 146.909 44.9333C146.903 46.121 147.167 46.5769 148.451 46.5589C152.752 46.4869 157.059 46.4929 161.366 46.5529C162.589 46.5709 162.973 46.199 162.961 44.9573C162.895 39.5646 162.919 34.172 162.913 28.7793C162.703 27.0997 161.911 26.1819 160.346 26.158C156.789 26.098 153.226 26.11 149.668 26.1639C148.079 26.1939 147.023 27.2677 146.879 28.7553ZM16.3517 1.63606C15.5779 1.62407 14.8041 1.61806 14.0303 1.60606C13.5204 1.40811 13.0105 1.30015 12.5307 1.67205C11.7329 1.70204 10.9291 1.72603 10.1313 1.75602C10.0653 1.75002 9.9993 1.74402 9.93331 1.73802C9.96331 1.846 9.9993 1.95398 10.0293 2.06195C10.0353 9.23017 10.0413 16.4044 10.0413 23.5726C10.0473 30.8428 10.0713 38.113 10.0233 45.3832C10.0173 46.4449 10.3112 46.7328 11.337 46.6608C12.9146 46.5529 14.4982 46.5349 16.0758 46.5889C17.1315 46.6249 17.3894 46.223 17.3775 45.2152C17.3355 39.6246 17.3835 34.04 17.3655 28.4494C17.3415 19.5476 17.2875 10.6518 17.2515 1.75003C16.9936 1.37813 16.6756 1.46211 16.3517 1.63606ZM181.91 1.76203C181.796 1.34813 181.563 1.40213 181.287 1.60008C181.119 1.60608 180.951 1.61206 180.783 1.61206C177.58 1.26415 174.364 1.53409 171.155 1.4861C169.488 1.45611 167.802 1.24615 166.14 1.62406C165.966 1.62406 165.792 1.62406 165.619 1.63006C165.385 1.42011 165.169 1.4501 164.971 1.68405C164.431 1.97197 164.725 2.46986 164.677 2.87776C164.473 4.6953 164.917 6.48885 164.911 8.3064C164.887 12.9492 164.935 17.5981 164.911 22.2469C164.905 23.0807 165.007 23.4646 166.008 23.4526C170.903 23.3926 175.798 23.4106 180.693 23.4466C181.605 23.4526 181.976 23.2667 181.97 22.2349C181.91 15.4026 181.922 8.58233 181.91 1.76203ZM128.428 1.66006C128.116 1.5041 127.798 1.29414 127.564 1.77402C127.54 8.60032 127.528 15.4266 127.486 22.2529C127.48 23.0687 127.57 23.4706 128.584 23.4646C134.072 23.3986 139.567 23.4226 145.062 23.4166C145.524 23.2007 145.386 22.8528 145.254 22.5049C145.182 16.0745 145.32 9.64407 145.134 3.21367C145.098 1.99597 144.834 1.4861 143.61 1.65405C140.023 1.36013 136.442 1.37812 132.855 1.62406C131.385 1.63005 129.909 1.64806 128.428 1.66006ZM146.495 97.1623C146.483 97.8761 147.005 97.7381 147.425 97.7381C158.564 97.7381 169.704 97.7321 180.843 97.7561C181.641 97.7561 181.976 97.6001 181.964 96.7064C181.898 93.1912 181.904 89.6761 181.886 86.167C181.665 85.7171 181.341 85.8251 181.005 86.005C180.831 85.993 180.651 85.987 180.477 85.9751C178.869 85.6871 177.268 85.7351 175.66 85.963C174.094 85.963 172.535 85.9631 170.969 85.9571C169.362 85.7171 167.754 85.7291 166.146 85.951C160.916 85.951 155.691 85.9571 150.46 85.9571C149.141 85.7411 147.827 85.7111 146.507 85.969C146.483 86.107 146.453 86.245 146.429 86.3829C146.267 86.5149 146.267 86.6469 146.435 86.7789C146.435 87.5407 146.435 88.3085 146.435 89.0703C146.267 89.2022 146.279 89.3222 146.447 89.4422C146.459 91.8956 146.471 94.3489 146.483 96.8023C146.459 96.8383 146.417 96.8803 146.423 96.9163C146.435 97.0063 146.465 97.0843 146.495 97.1623ZM12.1768 121.288C12.3987 121.456 12.6266 121.456 12.8486 121.288C13.1185 121.288 13.3945 121.288 13.6644 121.288C13.8863 121.45 14.1083 121.45 14.3362 121.288C17.3835 121.288 20.4307 121.288 23.4719 121.294C24.7856 121.588 26.0993 121.546 27.413 121.294C27.6829 121.294 27.9528 121.294 28.2228 121.294C29.8364 121.57 31.4499 121.606 33.0695 121.342C33.8314 121.33 34.5932 121.318 35.355 121.306C35.5949 121.45 35.8409 121.624 35.9908 121.204C36.0268 121.126 36.0508 121.048 36.0508 120.958C36.2128 120.634 36.3147 120.31 36.0688 119.981C36.0688 119.711 36.0688 119.441 36.0628 119.171C36.1168 118.883 36.2128 118.595 36.2128 118.307C36.2487 111.223 36.2848 104.145 36.3028 97.0603C36.3028 96.5744 36.3807 96.0585 36.0208 95.6386C35.5349 92.4654 34.5932 89.5202 32.3317 87.0908C28.1508 82.5979 22.9381 80.7743 16.9216 81.0923C10.5512 81.4282 4.91856 84.5294 1.89532 90.8758C1.22948 92.2675 0.557651 93.7191 0.581645 95.3447C0.365699 95.6446 0.251728 95.9566 0.413687 96.3225C0.407689 96.4784 0.407685 96.6344 0.401686 96.7904C0.365695 96.9823 0.293719 97.1743 0.293719 97.3662C0.28772 105.116 0.287715 112.872 0.287715 120.622C0.287715 120.952 0.209738 121.336 0.641631 121.498C0.827585 121.498 1.00754 121.498 1.19349 121.498C4.67862 121.438 8.17575 121.666 11.6549 121.306C11.8348 121.288 12.0088 121.288 12.1768 121.288ZM181.892 155.654C181.886 145.09 181.874 134.521 181.868 123.958C181.874 123.718 181.766 123.7 181.593 123.82C181.425 123.82 181.251 123.82 181.083 123.82C180.861 123.664 180.633 123.646 180.399 123.802C162.991 123.808 145.584 123.814 128.176 123.82C127.942 123.682 127.72 123.61 127.57 123.934C127.552 124.078 127.51 124.228 127.51 124.371C127.504 140.01 127.51 155.642 127.474 171.28C127.474 172.294 127.864 172.36 128.68 172.36C143.622 172.336 158.57 172.348 173.513 172.318C177.909 172.306 180.825 169.822 181.689 165.509C181.785 165.293 181.958 165.071 181.958 164.855C181.952 161.784 181.922 158.719 181.892 155.654ZM88.8916 43.8775C87.6799 43.9915 86.4682 43.9795 85.2505 44.1835C81.4535 44.8253 77.7404 45.6651 74.2673 47.4107C69.2165 49.96 65.1076 53.5711 61.7844 58.13C58.7252 62.3289 57.0636 67.1097 56.2658 72.1365C55.8279 74.8838 56.1878 77.7631 56.1878 80.5764C56.4517 80.9483 56.7696 80.8283 57.0876 80.6664C57.8854 80.6664 58.6832 80.6664 59.487 80.6604C59.6789 80.8343 59.8709 80.8403 60.0628 80.6544C60.4587 80.6544 60.8546 80.6484 61.2505 80.6484C61.3645 80.7863 61.4725 80.7863 61.5745 80.6424C64.6457 80.6304 67.7109 80.6124 70.7822 80.6004C70.8721 80.7383 70.9741 80.7503 71.0761 80.6124C71.6699 80.6184 72.2638 80.6304 72.8576 80.6364C73.5055 80.6364 74.3273 81.3262 74.6872 80.1745C74.4232 77.5471 74.8911 74.9918 75.5749 72.4964C76.6367 68.6514 78.9341 65.4182 82.2573 63.4387C85.5385 61.4832 89.3175 60.8233 93.3425 61.4112C98.0634 62.101 101.752 64.1885 104.458 68.0155C106.611 71.0568 107.493 74.5419 106.929 78.207C106.203 82.9098 103.138 85.8791 99.0231 87.9186C95.43 89.6941 91.8729 91.4337 88.8736 94.277C84.2308 98.6679 81.9813 104.073 81.5015 110.245C81.2315 113.736 81.5255 117.263 81.4895 120.778C81.4835 121.648 81.7414 121.846 82.5632 121.846C88.2078 121.834 93.8524 121.834 99.497 121.906C100.457 121.918 100.493 121.54 100.487 120.79C100.457 118.517 100.511 116.238 100.511 113.958C100.511 111.823 101.249 109.915 102.214 108.05C104.122 104.366 107.403 102.261 110.894 100.401C118.362 96.4184 123.353 90.39 125.525 82.22C126.538 78.3989 126.226 74.4699 125.536 70.5649C124.361 63.8946 121.272 58.25 116.443 53.6011C110.03 47.4287 102.262 44.2794 93.3845 43.8415C91.8789 43.4996 90.3853 43.4576 88.8916 43.8775ZM27.5449 123.82C18.9791 123.82 10.4132 123.844 1.85332 123.796C0.62363 123.79 0.233734 124.138 0.305716 125.379C0.425686 127.401 0.359694 129.434 0.371691 131.468C0.413681 142.703 0.419688 153.938 0.509665 165.173C0.539658 169.042 3.80884 172.3 7.63588 172.312C22.8841 172.359 38.1323 172.336 53.3805 172.389C54.6342 172.395 54.8261 171.892 54.8201 170.818C54.7961 155.672 54.7901 140.525 54.8261 125.379C54.8261 124.156 54.4842 123.796 53.2425 123.802C44.6707 123.85 36.1048 123.826 27.5449 123.82ZM91.315 159.865C97.5595 160.225 104.17 154.064 104.068 146.92C103.972 140.292 98.5732 134.047 90.6252 134.245C82.6832 134.443 78.1123 140.333 77.9984 146.92C77.8904 153.542 83.337 160.255 91.315 159.865ZM69.2465 34.3939C71.6279 31.7126 74.0093 29.0012 76.4207 26.3199C81.0036 21.2092 85.6164 16.1284 90.1813 11.0057C90.8052 10.3099 91.1771 10.3159 91.7829 11.0057C93.5885 13.0692 95.43 15.0967 97.2895 17.1122C99.7609 19.7875 102.292 22.4089 104.746 25.1022C107.343 27.9515 109.898 30.8428 112.418 33.7581C112.958 34.3819 113.258 34.3759 113.761 33.806C114.841 32.5824 115.945 31.3826 117.043 30.1769C117.463 29.7151 117.54 29.3312 117.061 28.7913C112.778 24.0285 108.531 19.2417 104.26 14.4669C102.19 12.1454 100.103 9.84202 98.0154 7.53859C95.9699 5.27715 93.9064 3.02771 91.8609 0.766275C91.357 0.208414 90.8052 -0.0255186 90.2413 0.610323C87.428 3.77154 84.6327 6.94473 81.8434 10.1239C80.3198 11.8635 78.9281 13.729 77.3025 15.3546C75.1191 17.5381 73.1516 19.9075 71.0701 22.1809C69.2585 24.1604 67.459 26.152 65.6354 28.1255C64.9456 28.8753 64.5017 29.5111 65.5035 30.4409C66.7991 31.6466 67.9508 33.0082 69.2465 34.3939ZM164.101 113.526C169.638 113.526 175.18 113.508 180.717 113.544C181.605 113.55 181.97 113.358 181.904 112.41C181.826 111.331 181.832 110.233 181.91 109.153C181.97 108.331 181.665 108.158 180.909 108.17C178.389 108.206 175.864 108.164 173.345 108.164C164.791 108.164 156.237 108.188 147.683 108.152C146.789 108.146 146.435 108.331 146.513 109.279C146.591 110.263 146.609 111.265 146.519 112.242C146.423 113.268 146.735 113.562 147.791 113.55C153.22 113.49 158.66 113.52 164.101 113.526ZM0.641631 33.5481C0.647629 33.5481 0.653626 33.5481 0.659625 33.5481C0.659625 37.3631 0.689619 41.1722 0.641631 44.9873C0.629634 46.013 0.935555 46.4089 1.98529 46.3489C3.31696 46.2769 4.66063 46.2589 5.9923 46.3489C7.29397 46.4329 7.77984 46.079 7.76785 44.6453C7.68987 37.2192 7.67787 29.787 7.76185 22.3609C7.77985 20.9213 7.07803 20.6873 6.0043 20.6873C4.72062 20.6873 3.43693 20.8313 2.15325 20.7773C1.03153 20.7293 0.587642 21.0352 0.611636 22.2589C0.689616 26.02 0.641631 29.781 0.641631 33.5481ZM164.089 116.459C164.089 116.465 164.089 116.471 164.089 116.477C159.29 116.477 154.491 116.477 149.692 116.477C146.597 116.477 146.669 116.489 146.555 119.621C146.501 121.048 146.915 121.468 148.349 121.462C158.288 121.408 168.234 121.456 178.173 121.426C179.295 121.426 180.873 122.05 181.413 121.336C181.994 120.568 181.539 119.063 181.653 117.887C181.778 116.645 181.221 116.417 180.111 116.429C174.772 116.489 169.434 116.459 164.089 116.459ZM29.1525 33.5601C29.1585 33.5601 29.1645 33.5601 29.1645 33.5601C29.1645 37.3212 29.2185 41.0882 29.1345 44.8493C29.1105 46.067 29.5124 46.4029 30.6521 46.3249C31.8818 46.241 33.1355 46.235 34.3652 46.3309C35.6069 46.4269 35.9608 45.977 35.9488 44.7413C35.8829 37.6571 35.9068 30.5788 35.8828 23.4946C35.8828 22.9128 35.6789 22.3249 35.6789 21.743C35.6849 20.9033 35.217 20.7773 34.5332 20.7953C33.3455 20.8193 32.1458 20.8913 30.9701 20.7833C29.5724 20.6573 29.0685 21.0772 29.1105 22.5708C29.2245 26.2299 29.1525 29.895 29.1525 33.5601ZM56.4517 14.4909C58.8091 11.9175 60.9326 9.62607 63.0141 7.29865C63.326 6.94474 63.6079 6.40487 63.9679 6.99272C64.6697 8.15043 65.9653 8.58232 66.7931 9.59607C68.5747 11.7735 70.5182 13.819 72.3777 15.9365C72.7856 16.4044 73.0436 16.5124 73.4995 15.9605C74.6032 14.6348 75.7669 13.3511 76.9366 12.0795C77.3025 11.6836 77.4045 11.3776 77.0206 10.9517C74.3512 7.97648 71.6939 5.00122 69.0366 2.01996C68.7666 1.72004 68.4367 1.70804 68.0888 1.70804C64.4777 1.71404 60.8606 1.73204 57.2495 1.71404C56.6017 1.70805 56.4217 1.912 56.4277 2.55984C56.4697 6.41088 56.4517 10.2679 56.4517 14.4909ZM119.088 27.4416C119.274 27.2857 119.448 27.1777 119.574 27.0337C121.625 24.6943 123.683 22.3609 125.716 20.0035C126.172 19.4756 126.286 18.8938 125.782 18.2639C123.653 15.6006 121.362 13.0812 119.046 10.5858C118.518 10.016 118.152 9.99798 117.63 10.5918C115.537 12.9552 113.42 15.3007 111.278 17.6221C110.762 18.1799 110.984 18.5339 111.404 18.9957C113.803 21.6171 116.185 24.2564 118.572 26.8898C118.734 27.0637 118.902 27.2377 119.088 27.4416ZM71.364 18.2939C71.208 18.102 71.0941 17.946 70.9621 17.802C68.8386 15.4026 66.6972 13.0092 64.5857 10.5918C63.9499 9.86601 63.482 10.034 62.9121 10.6878C60.8366 13.0692 58.7432 15.4386 56.6197 17.784C55.8459 18.6358 55.8519 19.3376 56.6437 20.1894C58.6592 22.3609 60.6447 24.5624 62.5642 26.8118C63.0921 27.4356 63.284 27.3217 63.7519 26.7998C66.0493 24.2144 68.3948 21.6711 70.7162 19.1097C70.9561 18.8638 71.1421 18.5758 71.364 18.2939ZM35.7569 55.9825C35.6009 56.0365 35.445 56.0485 35.355 56.1325C33.1355 58.19 31.354 60.6314 29.3985 62.9228C29.1105 63.2647 29.1405 63.6606 29.1405 64.0445C29.1345 67.4577 29.1705 70.8648 29.1225 74.278C29.1105 75.2317 29.5124 75.4657 30.3582 75.4417C31.6899 75.4057 33.0336 75.3637 34.3592 75.4477C35.5589 75.5256 35.9788 75.1657 35.9668 73.8941C35.9069 68.5074 35.9608 63.1147 35.9548 57.7281C35.9548 57.1642 36.1048 56.5644 35.7569 55.9825ZM45.4745 62.7248C43.429 64.5304 42.2473 66.4619 40.6157 67.9256C38.7081 69.6351 38.0063 71.5966 38.2823 74.104C38.3902 75.0878 38.5822 75.5376 39.6319 75.5076C41.1675 75.4537 42.7031 75.4657 44.2388 75.5316C45.2165 75.5736 45.5224 75.2137 45.5045 74.248C45.4445 71.5246 45.4804 68.8013 45.4745 66.078C45.4745 65.0942 45.4745 64.1285 45.4745 62.7248ZM154.737 51.9755C157.155 51.9755 159.578 51.9455 161.995 51.9875C163.183 52.0115 163.099 51.5016 162.619 50.7638C161.953 49.7441 160.988 49.2582 159.776 49.2582C156.615 49.2522 153.454 49.3062 150.298 49.2222C148.799 49.1862 147.749 49.7141 147.029 50.9858C146.873 51.2617 146.369 51.4416 146.663 51.8256C146.789 51.9875 147.197 51.9635 147.473 51.9635C149.896 51.9815 152.32 51.9755 154.737 51.9755ZM17.0296 71.4946C17.0296 70.187 17.0415 69.1012 17.0235 68.0095C17.0175 67.7816 16.9696 67.4577 16.8196 67.3497C16.5257 67.1397 16.2797 67.4396 16.0578 67.6076C15.4639 68.0575 15.182 68.7533 14.6181 69.2632C13.1605 70.5829 11.8588 72.0765 10.4792 73.4801C10.0293 73.936 10.0593 74.4939 10.1793 75.0038C10.3352 75.6876 10.9831 75.3937 11.4269 75.4417C11.8648 75.4897 12.3147 75.4717 12.7586 75.4477C14.0903 75.3877 15.7579 75.9935 16.6576 75.2257C17.6774 74.3739 16.8016 72.6224 17.0296 71.4946ZM157.347 12.4034C157.341 11.0177 156.411 10.04 155.091 10.022C153.801 9.99796 152.434 11.2937 152.488 12.4874C152.536 13.5671 153.993 14.8568 155.115 14.8148C156.423 14.7668 157.359 13.759 157.347 12.4034Z" fill="#E2E2E2"/>
<path d="M72.5697 80.4133C71.9759 80.4073 71.382 80.3953 70.7882 80.3893C70.6922 80.3833 70.5902 80.3773 70.4942 80.3773C67.423 80.3893 64.3578 80.4073 61.2865 80.4193C61.1786 80.4193 61.0706 80.4253 60.9626 80.4253C60.5667 80.4253 60.1708 80.4313 59.7749 80.4313C59.583 80.4313 59.391 80.4373 59.1991 80.4373C58.4013 80.4373 57.6035 80.4373 56.7997 80.4433C56.4997 80.4133 56.1998 80.3833 55.8999 80.3533C55.8999 77.534 55.54 74.6608 55.9779 71.9135C56.7757 66.8867 58.4372 62.1059 61.4965 57.907C64.8197 53.3481 68.9286 49.737 73.9794 47.1876C77.4525 45.4361 81.1656 44.5963 84.9626 43.9604C86.1803 43.7565 87.392 43.7685 88.6037 43.6545C90.0974 43.6425 91.597 43.6365 93.0966 43.6245C101.974 44.0624 109.742 47.2176 116.155 53.3841C120.984 58.0269 124.073 63.6715 125.249 70.3478C125.938 74.2529 126.25 78.1879 125.237 82.0029C123.065 90.1729 118.074 96.2014 110.606 100.184C107.115 102.044 103.834 104.149 101.926 107.832C100.961 109.698 100.223 111.606 100.223 113.741C100.223 116.02 100.169 118.294 100.199 120.573C100.211 121.323 100.169 121.701 99.2091 121.689C93.5645 121.617 87.9199 121.611 82.2753 121.629C81.4535 121.629 81.1956 121.431 81.2016 120.561C81.2376 117.052 80.9436 113.519 81.2136 110.028C81.6934 103.849 83.9429 98.4508 88.5857 94.0599C91.585 91.2226 95.1421 89.4831 98.7352 87.7015C102.856 85.668 105.921 82.6928 106.641 77.9899C107.205 74.3248 106.323 70.8397 104.17 67.7985C101.465 63.9714 97.7755 61.8839 93.0546 61.1941C89.0296 60.6063 85.2506 61.2661 81.9694 63.2216C78.6522 65.2011 76.3488 68.4343 75.287 72.2794C74.5972 74.7747 74.1353 77.3361 74.3993 79.9574C73.9254 80.6473 73.1396 80.1014 72.5697 80.4133Z" fill="black"/>
<path d="M181.461 123.341C181.467 133.904 181.479 144.473 181.485 155.037C181.443 155.571 181.371 156.104 181.359 156.638C181.323 159.392 181.305 162.139 181.281 164.892C180.417 169.205 177.502 171.688 173.105 171.7C158.163 171.73 143.214 171.718 128.272 171.742C127.456 171.742 127.066 171.676 127.066 170.663C127.108 155.025 127.096 139.393 127.102 123.754C127.102 123.61 127.138 123.461 127.162 123.317C127.366 123.281 127.564 123.245 127.768 123.203C145.176 123.197 162.584 123.191 179.991 123.185C180.219 123.191 180.447 123.197 180.675 123.203C180.843 123.203 181.017 123.203 181.185 123.203C181.281 123.251 181.371 123.299 181.461 123.341ZM154.318 136.945C147.893 136.417 143.856 142.176 143.79 147.76C143.73 153.249 149.027 158.72 154.408 158.372C160.43 157.988 165.109 153.801 165.121 147.461C165.139 141.822 160.526 136.525 154.318 136.945ZM173.765 145.859C172.517 145.715 172.031 146.603 172.061 147.694C172.097 148.792 172.841 149.458 173.993 149.488C175.096 149.518 175.93 148.618 175.876 147.485C175.81 146.213 175.018 145.823 173.765 145.859ZM134.673 145.859C133.413 145.775 132.921 146.597 132.813 147.634C132.711 148.624 133.785 149.506 134.894 149.44C136.088 149.374 136.676 148.666 136.634 147.509C136.58 146.303 135.848 145.793 134.673 145.859ZM154.33 128.625C153.364 128.625 152.302 129.525 152.464 130.407C152.608 131.205 152.788 132.194 154.03 132.152C155.181 132.11 156.333 131.193 156.219 130.233C156.093 129.165 155.481 128.541 154.33 128.625ZM155.955 164.76C156.063 163.465 155.313 162.907 154.282 162.907C153.148 162.907 152.584 163.776 152.41 164.814C152.296 165.486 153.556 166.758 154.228 166.602C155.199 166.386 156.171 166.026 155.955 164.76Z" fill="black"/>
<path d="M27.2565 123.597C35.8223 123.597 44.3882 123.621 52.9481 123.567C54.1838 123.561 54.5317 123.921 54.5317 125.144C54.4957 140.29 54.5017 155.437 54.5257 170.583C54.5257 171.657 54.3337 172.161 53.086 172.155C37.8378 172.101 22.5896 172.125 7.34144 172.077C3.5144 172.065 0.251206 168.807 0.215215 164.938C0.125238 153.703 0.119242 142.468 0.0772524 131.233C0.0712539 129.205 0.131239 127.172 0.0112684 125.144C-0.0607136 123.903 0.323192 123.555 1.55888 123.561C10.1247 123.615 18.6906 123.591 27.2565 123.597ZM47.5554 148.041C48.8331 137.741 38.0538 127.502 27.2445 127.7C16.1533 127.904 6.49566 136.955 6.81958 148.616C7.1255 159.684 16.2612 168.567 27.9643 168.441C38.7076 168.321 48.1733 159.15 47.5554 148.041ZM7.56939 161.495C6.3277 161.453 5.24197 163.199 5.80583 164.332C5.8958 164.518 6.26771 164.53 6.08776 164.89C5.67386 165.742 6.09376 166.912 6.98753 167.272C7.97729 167.674 8.48716 166.768 9.117 166.306C9.57289 165.97 9.84882 165.364 9.39894 164.884C9.08701 164.548 8.89506 164.56 9.24897 164.015C9.80683 163.163 8.62513 161.531 7.56939 161.495ZM47.8733 165.616C48.1433 165.358 48.3952 165.136 48.6292 164.896C49.421 164.093 49.367 163.175 48.7611 162.353C48.1553 161.531 47.2615 161.489 46.3557 161.903C45.8938 162.113 45.426 162.359 45.6599 163.001C45.8818 163.601 46.3377 163.643 46.8656 163.427C47.0755 163.343 47.2435 163.085 47.5614 163.325C47.5434 164.38 46.4277 164.554 45.9478 165.244C45.6059 165.736 45.144 166.264 45.39 166.834C45.6119 167.344 46.2717 167.02 46.7336 167.074C47.0755 167.116 47.4295 167.122 47.7654 167.074C48.2872 166.996 49.073 167.368 49.169 166.438C49.283 165.466 48.2932 166.018 47.8733 165.616ZM6.74159 132.696C6.7296 133.236 6.7116 133.716 7.34144 133.752C7.9053 133.782 8.12125 133.398 8.12125 132.894C8.12725 132.342 8.15724 131.857 8.69111 131.491C9.28496 131.077 9.69886 130.489 9.36894 129.715C9.03302 128.941 8.40318 128.431 7.54539 128.401C6.7116 128.371 6.19573 128.959 5.84182 129.637C5.53589 130.231 5.40992 130.861 6.44167 130.741C7.32945 130.639 7.14949 131.119 7.00553 131.635C6.89755 132.001 6.81957 132.384 6.74159 132.696ZM47.4654 128.593C47.1655 128.593 46.9136 128.563 46.6736 128.599C46.2418 128.659 45.6299 128.257 45.456 129.019C45.288 129.739 45.6479 129.967 46.3317 130.015C46.8596 130.051 46.6796 130.519 46.6376 130.837C46.5657 131.377 46.4097 131.905 46.3617 132.438C46.3257 132.852 46.1878 133.368 46.8656 133.47C47.5314 133.572 47.7294 133.176 47.8134 132.63C47.9213 131.953 47.8853 131.197 48.3652 130.657C48.8751 130.081 49.4749 129.523 49.0431 128.737C48.6591 128.042 47.9513 128.839 47.4654 128.593Z" fill="#A0A0A0"/>
<path d="M0 96.1673C0.00599851 96.0114 0.00599192 95.8554 0.0119904 95.6995C0.227937 95.3995 0.275924 95.0756 0.179948 94.7217C0.155954 93.0961 0.833786 91.6505 1.49362 90.2528C4.51687 83.9124 10.1495 80.8112 16.5199 80.4693C22.5364 80.1513 27.7431 81.9749 31.93 86.4678C34.1915 88.8972 35.1332 91.8484 35.6191 95.0156C35.6191 96.1014 35.6251 97.1871 35.6251 98.2668C35.6371 105.027 35.6491 111.787 35.6551 118.548C35.6551 118.818 35.6551 119.088 35.6611 119.358C35.6551 119.681 35.6491 120.005 35.6431 120.335C35.6371 120.419 35.6191 120.503 35.5831 120.581C35.3732 120.617 35.1572 120.653 34.9473 120.683C34.1855 120.695 33.4237 120.707 32.6619 120.719C31.0483 120.497 29.4347 120.545 27.8151 120.671C27.5451 120.671 27.2752 120.671 27.0053 120.671C25.6916 120.533 24.3779 120.533 23.0643 120.671C20.017 120.671 16.9698 120.671 13.9285 120.665C13.7066 120.665 13.4846 120.665 13.2567 120.665C12.9868 120.665 12.7108 120.665 12.4409 120.665C12.2189 120.665 11.991 120.665 11.7691 120.665C11.5951 120.665 11.4271 120.671 11.2532 120.671C9.2317 120.647 7.2042 120.569 5.18271 120.611C3.71907 120.647 2.23144 120.329 0.791798 120.863C0.605844 120.863 0.42589 120.863 0.239937 120.863C0.209944 120.521 0.149963 120.179 0.149963 119.837C0.155961 113.617 0.18595 107.391 0.173953 101.17C0.173953 99.5085 0.28193 97.8289 0 96.1673ZM17.7376 111.685C23.862 111.721 29.0028 106.773 29.0328 100.768C29.0568 94.6017 24.4319 89.533 17.8995 89.407C12.009 89.2931 6.70633 94.4458 6.79631 100.51C6.87429 106.395 11.4571 111.739 17.7376 111.685Z" fill="black"/>
<path d="M91.0273 159.636C83.0493 160.026 77.6026 153.319 77.7166 146.691C77.8306 140.105 82.4014 134.214 90.3434 134.016C98.2915 133.818 103.696 140.063 103.786 146.691C103.882 153.835 97.2717 159.99 91.0273 159.636Z" fill="black"/>
<path d="M68.9579 34.1649C67.6622 32.7852 66.5105 31.4176 65.2149 30.2119C64.2131 29.2821 64.651 28.6463 65.3468 27.8965C67.1704 25.923 68.9699 23.9314 70.7815 21.9519C72.863 19.6785 74.8305 17.3091 77.0139 15.1256C78.6455 13.494 80.0372 11.6285 81.5548 9.89494C84.3441 6.70973 87.1394 3.54253 89.9527 0.38132C90.5166 -0.254521 91.0684 -0.0205918 91.5723 0.537269C93.6178 2.79871 95.6813 5.04815 97.7267 7.30959C99.8142 9.61301 101.902 11.9224 103.971 14.2379C108.236 19.0127 112.489 23.8055 116.772 28.5623C117.258 29.1022 117.174 29.4921 116.754 29.9479C115.656 31.1536 114.547 32.3534 113.473 33.577C112.969 34.1469 112.669 34.1529 112.129 33.529C109.61 30.6078 107.054 27.7225 104.457 24.8732C102.004 22.1799 99.4723 19.5585 97.0009 16.8832C95.1414 14.8677 93.2939 12.8402 91.4943 10.7767C90.8885 10.0809 90.5165 10.0749 89.8927 10.7767C85.3278 15.8994 80.715 20.9802 76.1321 26.0909C73.7207 28.7722 71.3393 31.4776 68.9579 34.1649Z" fill="black"/>
<path d="M150.052 85.3522C155.283 85.3522 160.508 85.3462 165.739 85.3462C167.346 85.5261 168.954 85.5081 170.561 85.3522C172.127 85.3522 173.687 85.3522 175.252 85.3582C176.86 85.5261 178.461 85.4721 180.069 85.3702C180.243 85.3822 180.423 85.3882 180.597 85.4002C180.891 85.4542 181.185 85.5081 181.479 85.5621C181.497 89.0773 181.485 92.5924 181.557 96.1015C181.575 96.9953 181.233 97.1512 180.435 97.1512C169.296 97.1273 158.156 97.1392 147.017 97.1333C146.591 97.1333 146.069 97.2712 146.087 96.5574C146.081 96.4374 146.081 96.3174 146.075 96.2035C146.063 93.7501 146.051 91.2967 146.039 88.8433C146.033 88.7173 146.033 88.5914 146.027 88.4714C146.027 87.7096 146.027 86.9418 146.027 86.18C146.027 86.048 146.021 85.916 146.021 85.7841C146.045 85.6461 146.075 85.5081 146.099 85.3702C147.419 85.5021 148.739 85.5261 150.052 85.3522Z" fill="black"/>
<path d="M144.654 22.7997C139.159 22.8057 133.671 22.7817 128.176 22.8477C127.162 22.8597 127.072 22.4518 127.078 21.636C127.12 14.8097 127.132 7.98342 127.156 1.15712C127.444 1.12113 127.732 1.08514 128.02 1.04315C129.496 1.03115 130.971 1.01915 132.447 1.00115C136.034 1.16311 139.615 1.13313 143.202 1.03116C144.426 0.863199 144.69 1.37306 144.726 2.59075C144.912 9.02115 144.774 15.4516 144.846 21.8819C144.786 22.1939 144.72 22.4998 144.654 22.7997ZM135.89 9.19511C134.595 9.21311 133.389 10.4848 133.437 11.7865C133.479 12.9502 134.66 14.1919 135.716 14.1799C137.168 14.1679 138.41 12.9742 138.392 11.6005C138.374 10.3768 137.126 9.17712 135.89 9.19511Z" fill="black"/>
<path d="M165.33 1.39522C165.504 1.39522 165.678 1.39523 165.852 1.38923C170.735 1.5212 175.611 1.55718 180.494 1.37722C180.662 1.37123 180.83 1.36523 180.998 1.36523C181.208 1.41922 181.412 1.4732 181.622 1.52719C181.634 8.34749 181.622 15.1678 181.682 21.9881C181.688 23.0198 181.316 23.2058 180.404 23.1998C175.509 23.1638 170.615 23.1518 165.72 23.2058C164.718 23.2178 164.616 22.8339 164.622 22.0001C164.646 17.3572 164.598 12.7084 164.622 8.05957C164.634 6.24202 164.184 4.44848 164.388 2.63093C164.436 2.22303 164.142 1.72514 164.682 1.43721C164.904 1.43122 165.12 1.41322 165.33 1.39522ZM175.389 12.1086C175.365 10.5609 174.526 9.60719 173.17 9.58319C171.898 9.5652 170.633 10.8549 170.675 12.1266C170.723 13.5182 171.874 14.5919 173.284 14.5559C174.52 14.5259 175.407 13.5002 175.389 12.1086Z" fill="black"/>
<path d="M127.145 45.6901C127.133 39.2237 127.145 32.7573 127.097 26.2909C127.091 25.3792 127.343 25.1452 128.254 25.1572C133.143 25.2052 138.032 25.2292 142.915 25.1452C144.163 25.1212 144.624 25.4572 144.426 26.6688C144.414 33.0213 144.396 39.3737 144.384 45.7261C138.638 45.8521 132.891 45.8401 127.145 45.6901ZM135.723 37.958C137.33 37.928 138.458 36.8123 138.416 35.2947C138.374 33.8371 137.264 32.9013 135.657 32.9553C134.601 32.9913 133.389 34.3169 133.377 35.4387C133.371 36.5784 134.673 37.976 135.723 37.958Z" fill="black"/>
<path d="M37.9039 44.5784C37.9099 44.3984 37.9099 44.2245 37.9159 44.0445C37.9099 43.9246 37.9099 43.7986 37.9039 43.6726C37.8919 42.8988 37.8799 42.131 37.8679 41.3572C37.8919 38.154 37.9399 34.9448 37.9339 31.7416C37.9279 27.0028 38.1078 22.264 37.8499 17.5311C37.8439 14.4659 37.8439 11.4007 37.8379 8.33542C37.8619 8.30543 37.9159 8.27545 37.9099 8.25146C37.8979 8.17947 37.8679 8.10748 37.8439 8.0355C37.8499 6.25994 37.8499 4.4784 37.8559 2.70284C37.7899 1.16122 39.0196 1.49713 39.8834 1.30518C40.2673 1.31117 40.6452 1.31119 41.0291 1.31718C42.0368 1.52113 43.0506 1.45515 44.0643 1.37117C44.2383 1.38317 44.4123 1.39516 44.5802 1.40115C44.7782 1.43715 44.9701 1.47914 45.1681 1.51513C45.1861 11.6646 45.2101 21.8141 45.222 31.9635C45.228 36.6664 45.1981 41.3692 45.1861 46.072C42.8166 46.4139 40.4412 46.096 38.0658 46.12L38.0178 46.096C37.9879 45.5981 37.9459 45.0883 37.9039 44.5784Z" fill="black"/>
<path d="M9.83741 1.52093C10.6352 1.49094 11.439 1.46694 12.2368 1.44295C12.7347 1.41895 13.2386 1.40095 13.7424 1.37695C14.5162 1.38895 15.2901 1.39496 16.0639 1.40696C16.3638 1.44295 16.6637 1.47894 16.9636 1.52093C17.0056 10.4227 17.0536 19.3185 17.0776 28.2203C17.0956 33.8109 17.0476 39.3955 17.0896 44.9861C17.0956 45.9938 16.8437 46.3957 15.7879 46.3598C14.2103 46.3058 12.6207 46.3298 11.0491 46.4317C10.0234 46.4977 9.72944 46.2158 9.73544 45.1541C9.78343 37.8839 9.75943 30.6137 9.75344 23.3435C9.74744 16.1753 9.74144 9.00106 9.74144 1.83285C9.77143 1.72487 9.80142 1.6229 9.83741 1.52093Z" fill="black"/>
<path d="M162.625 28.5504C162.631 33.943 162.607 39.3357 162.673 44.7283C162.691 45.97 162.307 46.3419 161.077 46.3239C156.77 46.264 152.469 46.2519 148.162 46.3299C146.879 46.3539 146.609 45.898 146.621 44.7043C146.663 39.3117 146.609 33.919 146.591 28.5264C151.935 28.5384 157.28 28.5444 162.625 28.5504Z" fill="#A0A0A0"/>
<path d="M26.3147 27.165C26.3147 31.364 26.3087 35.5569 26.3087 39.7559C26.0268 40.2957 26.0508 40.8416 26.2847 41.3875C26.2847 42.8391 26.2847 44.2907 26.2847 45.7424C26.2367 45.8444 26.1887 45.9403 26.1408 46.0423C24.2092 46.0603 22.2777 46.0423 20.3522 46.1083C19.5484 46.1383 19.3624 45.8563 19.3624 45.0945C19.3864 34.1113 19.3864 23.128 19.3564 12.1387C19.3564 11.275 19.6564 11.047 20.4662 11.071C22.3437 11.119 24.2272 11.083 26.1048 11.083C26.1228 11.7788 25.9968 12.4807 26.2727 13.1525C26.2727 13.8123 26.2727 14.4722 26.2787 15.126C26.0388 15.7738 26.0148 16.4157 26.3027 17.0515C26.3087 18.7731 26.3147 20.4947 26.3207 22.2162C25.9848 23.8658 26.0088 25.5154 26.3147 27.165Z" fill="black"/>
<path d="M164.58 55.2615C164.586 53.21 164.598 51.1585 164.604 49.101C164.634 48.9991 164.67 48.8911 164.7 48.7891C165.408 48.5552 166.128 48.5132 166.872 48.5132C171.406 48.5312 175.941 48.5552 180.476 48.5252C181.34 48.5192 181.664 48.7291 181.652 49.6709C181.604 53.318 181.664 56.9651 181.646 60.6122C181.646 61.224 181.46 61.8359 181.364 62.4477C176.175 62.4537 170.986 62.4657 165.798 62.4657C165.384 62.4657 164.88 62.6157 164.616 62.0938C164.61 59.9403 164.604 57.7869 164.598 55.6334C164.586 55.5134 164.586 55.3875 164.58 55.2615ZM171.808 55.7354C171.814 55.7354 171.82 55.7354 171.826 55.7354C171.826 56.4732 171.82 57.211 171.826 57.9488C171.832 58.7706 172.078 59.4245 173.05 59.4305C174.028 59.4365 174.274 58.7166 174.292 57.9548C174.322 56.3772 174.298 54.7996 174.25 53.228C174.226 52.5442 174.01 52.0283 173.104 52.0283C172.21 52.0283 171.826 52.3882 171.808 53.222C171.79 54.0558 171.808 54.8956 171.808 55.7354Z" fill="black"/>
<path d="M163.813 113.291C158.372 113.291 152.932 113.261 147.497 113.315C146.441 113.327 146.129 113.027 146.225 112.007C146.315 111.03 146.303 110.028 146.219 109.044C146.141 108.102 146.495 107.917 147.389 107.917C155.943 107.946 164.497 107.928 173.051 107.928C175.57 107.928 178.096 107.97 180.615 107.934C181.371 107.923 181.677 108.096 181.617 108.918C181.539 109.998 181.533 111.096 181.611 112.175C181.677 113.123 181.311 113.315 180.423 113.309C174.886 113.279 169.35 113.297 163.813 113.291Z" fill="black"/>
<path d="M164.605 62.1001C164.874 62.622 165.372 62.472 165.786 62.472C170.975 62.478 176.164 62.466 181.352 62.454C181.37 65.8192 181.352 69.1843 181.424 72.5495C181.448 73.6172 181.172 74.0371 180.021 74.0191C175.318 73.9651 170.615 73.9711 165.912 74.0251C164.82 74.0371 164.431 73.7492 164.461 72.6155C164.569 69.1183 164.569 65.6092 164.605 62.1001ZM172.811 70.2281C174.196 70.1861 174.784 69.4843 174.736 68.4165C174.694 67.5048 174.16 66.8449 173.104 66.8629C171.953 66.8749 171.311 67.4928 171.335 68.6025C171.353 69.5982 171.875 70.294 172.811 70.2281Z" fill="#A0A0A0"/>
<path d="M0.353179 33.319C0.353179 29.5579 0.401166 25.7909 0.323185 22.0298C0.299191 20.8061 0.743076 20.5002 1.8648 20.5482C3.14248 20.6021 4.43216 20.4522 5.71584 20.4582C6.78958 20.4582 7.4854 20.6921 7.4734 22.1318C7.38942 29.5579 7.40142 36.99 7.4794 44.4162C7.49739 45.8438 7.00552 46.2038 5.70385 46.1198C4.37218 46.0298 3.02851 46.0478 1.69684 46.1198C0.6471 46.1798 0.341182 45.7839 0.353179 44.7581C0.401167 40.9431 0.371174 37.134 0.371174 33.319C0.365176 33.319 0.359178 33.319 0.353179 33.319Z" fill="#A0A0A0"/>
<path d="M47.5681 46.1261C47.0702 45.3043 47.3941 44.4045 47.3881 43.5527C47.3581 36.2405 47.4061 28.9284 47.3521 21.6162C47.3461 20.5964 47.706 20.4885 48.5218 20.5065C50.0994 20.5484 51.689 20.5904 53.2666 20.5004C54.2804 20.4465 54.4963 20.8424 54.4963 21.7601C54.4723 28.2805 54.4903 34.8069 54.4843 41.3273C54.4843 42.9049 54.4423 44.4825 54.4183 46.0601C52.1329 46.0901 49.8535 46.1081 47.5681 46.1261Z" fill="black"/>
<path d="M162.301 83.7845C161.917 83.7845 161.527 83.7905 161.143 83.7905C160.436 83.6106 159.728 83.5686 159.02 83.7665C158.252 83.7665 157.49 83.7605 156.723 83.7605C156.597 83.6106 156.465 83.5986 156.333 83.7485C153.195 83.7365 150.058 83.7245 146.921 83.7185C146.609 83.6585 146.303 83.5926 145.991 83.5326C146.291 83.0527 146.249 82.5188 146.249 81.979C146.237 79.2676 146.255 76.5503 146.225 73.839C146.219 73.1552 146.279 72.7833 147.149 72.7893C152.086 72.8192 157.022 72.8012 161.959 72.7653C162.727 72.7593 162.967 72.9812 162.955 73.761C162.901 77.0182 162.919 80.2754 162.913 83.5326C162.703 83.6106 162.505 83.7005 162.301 83.7845Z" fill="black"/>
<path d="M163.801 116.23C169.145 116.23 174.484 116.26 179.829 116.207C180.944 116.195 181.496 116.416 181.37 117.664C181.256 118.84 181.712 120.345 181.13 121.113C180.591 121.827 179.013 121.197 177.891 121.203C167.952 121.227 158.006 121.185 148.067 121.239C146.633 121.245 146.219 120.825 146.273 119.398C146.387 116.266 146.309 116.26 149.41 116.254C154.209 116.248 159.008 116.254 163.807 116.254C163.801 116.242 163.801 116.236 163.801 116.23Z" fill="#A0A0A0"/>
<path d="M28.8646 33.331C28.8646 29.6659 28.9365 26.0008 28.8286 22.3357C28.7866 20.8481 29.2905 20.4222 30.6881 20.5482C31.8698 20.6562 33.0635 20.5842 34.2512 20.5602C34.935 20.5482 35.3969 20.6682 35.3969 21.508C35.3909 22.0898 35.5949 22.6777 35.6009 23.2595C35.6249 30.3438 35.6009 37.422 35.6669 44.5062C35.6789 45.7419 35.325 46.1918 34.0833 46.0958C32.8536 45.9999 31.6059 46.0059 30.3702 46.0898C29.2305 46.1678 28.8226 45.8259 28.8526 44.6142C28.9305 40.8531 28.8826 37.0861 28.8826 33.325C28.8766 33.331 28.8706 33.331 28.8646 33.331Z" fill="#A0A0A0"/>
<path d="M56.1635 14.262C56.1635 10.039 56.1815 6.18198 56.1515 2.32494C56.1455 1.6771 56.3255 1.47915 56.9733 1.47915C60.5844 1.49714 64.2015 1.47914 67.8126 1.47314C68.1605 1.47314 68.4904 1.47915 68.7604 1.78508C71.4177 4.76634 74.0751 7.74758 76.7444 10.7168C77.1283 11.1487 77.0203 11.4547 76.6604 11.8446C75.4907 13.1162 74.327 14.3999 73.2233 15.7256C72.7614 16.2775 72.5094 16.1695 72.1015 15.7016C70.242 13.5841 68.2985 11.5387 66.5169 9.36119C65.6831 8.34745 64.3935 7.91554 63.6916 6.75783C63.3317 6.16997 63.0498 6.71584 62.7379 7.06376C60.6444 9.40317 58.5209 11.6886 56.1635 14.262Z" fill="black"/>
<path d="M125.351 8.11965C125.333 9.66126 125.315 11.2029 125.291 12.7445C125.249 13.0864 125.201 13.4343 125.159 13.7762C123.467 12.2706 122.027 10.5371 120.63 8.76149C120.102 8.09566 119.508 7.45381 118.842 6.93194C118.302 6.50604 117.75 6.32609 117.103 7.0999C115.249 9.32534 113.264 11.4368 111.158 13.4403C110.33 14.2261 109.766 15.2939 108.999 16.3436C107.571 14.73 106.263 13.2004 104.902 11.7188C104.44 11.2149 104.62 10.9209 104.992 10.489C107.409 7.69374 110.108 5.15039 112.256 2.12114C112.598 1.64126 113.054 1.4673 113.647 1.47329C117.504 1.49129 121.356 1.4853 125.225 1.4853C125.255 2.91895 124.895 4.31059 125.435 5.65425C125.033 6.46405 125.201 7.29185 125.351 8.11965Z" fill="black"/>
<path d="M118.8 27.2129C118.614 27.0089 118.446 26.835 118.284 26.655C115.897 24.0217 113.515 21.3823 111.116 18.761C110.696 18.3051 110.474 17.9512 110.99 17.3873C113.126 15.0599 115.243 12.7145 117.342 10.3571C117.864 9.76921 118.23 9.78122 118.758 10.3511C121.074 12.8465 123.365 15.3658 125.494 18.0292C125.998 18.659 125.884 19.2348 125.428 19.7687C123.395 22.1201 121.337 24.4595 119.286 26.799C119.16 26.9429 118.992 27.0509 118.8 27.2129Z" fill="#A0A0A0"/>
<path d="M71.0762 18.0652C70.8542 18.3531 70.6623 18.635 70.4343 18.887C68.1129 21.4483 65.7675 23.9917 63.4701 26.577C63.0022 27.0989 62.8162 27.2129 62.2824 26.589C60.3628 24.3336 58.3773 22.1382 56.3618 19.9667C55.57 19.1089 55.5641 18.4131 56.3379 17.5613C58.4613 15.2159 60.5548 12.8465 62.6303 10.4651C63.2001 9.81123 63.668 9.64327 64.3039 10.3691C66.4153 12.7805 68.5508 15.1739 70.6803 17.5793C70.8062 17.7113 70.9202 17.8672 71.0762 18.0652Z" fill="#A0A0A0"/>
<path d="M6.54396 75.2906C4.88238 75.2906 3.22679 75.2907 1.5652 75.2966C1.1633 75.2607 0.75541 75.2247 0.35351 75.1887C0.323517 71.1937 0.293525 67.1927 0.269531 63.1977C0.269531 62.7598 0.317516 62.3639 0.641436 61.974C2.53696 59.7005 4.54046 57.5291 6.62794 55.4296C6.84989 55.2017 7.09582 54.6558 7.49772 55.2736C7.49772 55.3876 7.49773 55.5076 7.50373 55.6216C7.50973 61.71 7.52172 67.7985 7.49772 73.893C7.49772 74.3849 7.88763 75.1647 6.88588 75.2547C6.77191 75.2667 6.65793 75.2786 6.54396 75.2906Z" fill="black"/>
<path d="M19.1163 69.5203C19.1163 68.9564 19.1163 68.3925 19.1163 67.8287C19.2542 67.6967 19.2422 67.5708 19.1043 67.4508C19.1043 66.0891 19.1102 64.7275 19.1102 63.3658C19.2902 63.1799 19.3682 62.9639 19.3142 62.712C21.4317 60.0606 23.7291 57.5773 26.4164 54.7939C26.4164 60.1086 26.4164 64.9554 26.4164 69.8082C26.0025 71.5958 26.3984 73.4193 26.1885 75.2188C24.119 75.2308 22.0495 75.2489 19.98 75.2489C19.5721 75.2489 19.0203 75.3868 19.0983 74.649C19.2482 74.535 19.2722 74.415 19.1222 74.2771C19.1222 72.8254 19.1222 71.3678 19.1222 69.9162C19.2602 69.7782 19.2542 69.6462 19.1163 69.5203Z" fill="black"/>
<path d="M35.4686 55.7534C35.8165 56.3293 35.6665 56.9351 35.6665 57.505C35.6725 62.8916 35.6186 68.2843 35.6785 73.6709C35.6905 74.9426 35.2706 75.3025 34.0709 75.2246C32.7393 75.1406 31.4016 75.1826 30.0699 75.2186C29.2241 75.2426 28.8222 75.0026 28.8342 74.0548C28.8762 70.6417 28.8402 67.2345 28.8522 63.8214C28.8522 63.4375 28.8163 63.0416 29.1102 62.6997C31.0657 60.4083 32.8472 57.9669 35.0667 55.9094C35.1567 55.8254 35.3126 55.8134 35.4686 55.7534Z" fill="#A0A0A0"/>
<path d="M45.1865 62.4956C45.1865 63.8993 45.1865 64.871 45.1865 65.8368C45.1925 68.5601 45.1565 71.2834 45.2165 74.0067C45.2345 74.9725 44.9286 75.3324 43.9508 75.2904C42.4152 75.2244 40.8796 75.2184 39.344 75.2664C38.2942 75.3024 38.1023 74.8465 37.9943 73.8628C37.7184 71.3614 38.4202 69.3999 40.3277 67.6843C41.9593 66.2327 43.141 64.3012 45.1865 62.4956Z" fill="#A0A0A0"/>
<path d="M173.057 25.8027C173.434 25.8027 173.812 25.8027 174.19 25.8087C175.786 25.8207 177.375 25.8267 178.971 25.8387C179.637 25.8027 180.057 26.2046 180.489 26.6305C180.951 27.0864 181.508 27.6323 181.299 28.2321C181.065 28.898 180.261 28.5381 179.727 28.5441C175.072 28.574 170.417 28.5681 165.762 28.5501C165.414 28.5501 164.905 28.808 164.731 28.3101C164.587 27.8962 165.031 27.5363 165.115 27.2304C165.57 25.6108 166.818 25.8927 167.946 25.8027C169.643 25.8027 171.347 25.8027 173.057 25.8027Z" fill="black"/>
<path d="M154.449 51.7462C152.032 51.7462 149.609 51.7522 147.191 51.7402C146.909 51.7402 146.507 51.7642 146.381 51.6022C146.087 51.2243 146.591 51.0384 146.747 50.7624C147.467 49.4907 148.517 48.9569 150.016 48.9989C153.172 49.0828 156.339 49.0289 159.494 49.0349C160.706 49.0349 161.672 49.5207 162.337 50.5405C162.817 51.2783 162.901 51.7882 161.714 51.7642C159.29 51.7162 156.867 51.7462 154.449 51.7462Z" fill="black"/>
<path d="M162.625 28.5505C157.28 28.5445 151.935 28.5385 146.591 28.5325C146.735 27.0449 147.791 25.9652 149.38 25.9412C152.937 25.8812 156.5 25.8752 160.057 25.9352C161.617 25.9532 162.415 26.8709 162.625 28.5505Z" fill="black"/>
<path d="M16.7416 71.2654C16.5137 72.3931 17.3835 74.1446 16.3637 75.0084C15.464 75.7702 13.7964 75.1704 12.4647 75.2304C12.0208 75.2484 11.5709 75.2724 11.133 75.2244C10.6891 75.1764 10.0413 75.4643 9.88534 74.7865C9.77137 74.2766 9.73538 73.7188 10.1853 73.2629C11.5649 71.8592 12.8666 70.3656 14.3242 69.0459C14.8881 68.5361 15.17 67.8342 15.7639 67.3903C15.9918 67.2164 16.2378 66.9165 16.5257 67.1324C16.6756 67.2404 16.7236 67.5643 16.7296 67.7922C16.7536 68.872 16.7416 69.9577 16.7416 71.2654Z" fill="#A0A0A0"/>
<path d="M157.059 12.1741C157.065 13.5297 156.135 14.5315 154.821 14.5855C153.7 14.6275 152.242 13.3378 152.194 12.2581C152.14 11.0644 153.514 9.77467 154.797 9.79267C156.123 9.81066 157.053 10.7884 157.059 12.1741Z" fill="black"/>
<path d="M0.119462 96.5493C0.401392 98.2109 0.287416 99.8905 0.293415 101.564C0.305412 107.785 0.275423 114.011 0.269425 120.231C0.269425 120.573 0.329406 120.915 0.359399 121.257C-0.0724936 121.095 0.00548923 120.705 0.00548923 120.381C-0.000509276 112.631 -0.000512571 104.875 0.0114844 97.1252C0.0114844 96.9332 0.0834713 96.7413 0.119462 96.5493Z" fill="#A0A0A0"/>
<path d="M37.8556 17.5371C38.1135 22.2699 37.9336 27.0088 37.9396 31.7476C37.9456 34.9508 37.8976 38.16 37.8736 41.3632C37.6157 40.1395 37.7476 38.9038 37.7476 37.6741C37.7296 31.5976 37.7356 25.5211 37.7476 19.4506C37.7476 18.8148 37.8136 18.173 37.8556 17.5371Z" fill="#A0A0A0"/>
<path d="M35.7801 118.942C35.7681 112.181 35.7561 105.421 35.7501 98.6609C35.7501 97.5751 35.7441 96.4894 35.7441 95.4097C36.1041 95.8296 36.0321 96.3454 36.0261 96.8313C36.0021 103.916 35.9721 110.994 35.9361 118.078C35.9301 118.36 35.8341 118.648 35.7801 118.942Z" fill="#A0A0A0"/>
<path d="M144.497 46.0958C144.509 39.7434 144.527 33.391 144.539 27.0386C144.875 28.4542 144.689 29.8879 144.695 31.3095C144.719 35.8504 144.683 40.3913 144.653 44.9381C144.653 45.328 144.557 45.7119 144.497 46.0958Z" fill="#A0A0A0"/>
<path d="M127.264 46.0718C133.01 46.2217 138.757 46.2397 144.497 46.1018C144.287 46.6117 143.832 46.4377 143.478 46.4377C138.409 46.4437 133.34 46.4377 128.277 46.4197C127.918 46.4137 127.462 46.5876 127.264 46.0718Z" fill="#A0A0A0"/>
<path d="M180.501 1.38287C175.618 1.55682 170.741 1.52083 165.858 1.39486C167.52 1.01695 169.206 1.23291 170.873 1.2569C174.082 1.31089 177.298 1.03495 180.501 1.38287Z" fill="#A0A0A0"/>
<path d="M143.328 1.41881C139.74 1.52079 136.159 1.55079 132.572 1.38883C136.153 1.14889 139.74 1.12489 143.328 1.41881Z" fill="#A0A0A0"/>
<path d="M0.916992 121.257C2.35064 120.723 3.84426 121.041 5.30789 121.005C7.32939 120.957 9.35688 121.035 11.3784 121.065C7.89325 121.425 4.40212 121.197 0.916992 121.257Z" fill="#A0A0A0"/>
<path d="M181.406 165.28C181.43 162.527 181.448 159.78 181.484 157.026C181.49 156.493 181.562 155.959 181.61 155.425C181.634 158.49 181.67 161.561 181.676 164.626C181.676 164.842 181.496 165.058 181.406 165.28Z" fill="#A0A0A0"/>
<path d="M38.0781 46.132C40.4535 46.108 42.8229 46.4199 45.1983 46.084C44.4965 46.7678 43.6207 46.4319 42.8469 46.4079C41.2513 46.3599 39.6317 46.7138 38.0781 46.132Z" fill="#A0A0A0"/>
<path d="M47.5674 46.1259C49.8468 46.1079 52.1322 46.0899 54.4117 46.0659C52.1382 46.5578 49.8528 46.5038 47.5674 46.1259Z" fill="#A0A0A0"/>
<path d="M26.1953 75.2188C26.4053 73.4192 26.0094 71.5957 26.4232 69.8081C26.4352 71.6137 26.8731 73.4372 26.1953 75.2188Z" fill="#A0A0A0"/>
<path d="M173.056 25.803C171.352 25.803 169.649 25.803 167.945 25.797C169.643 25.4971 171.346 25.5451 173.056 25.803Z" fill="#A0A0A0"/>
<path d="M178.965 25.8389C177.37 25.8269 175.78 25.8209 174.185 25.8089C175.78 25.6109 177.376 25.5449 178.965 25.8389Z" fill="#A0A0A0"/>
<path d="M27.9404 121.06C29.554 120.934 31.1736 120.886 32.7872 121.108C31.1616 121.372 29.548 121.336 27.9404 121.06Z" fill="#A0A0A0"/>
<path d="M26.3146 27.1649C26.0086 25.5154 25.9906 23.8718 26.3206 22.2222C26.6085 23.8718 26.5845 25.5154 26.3146 27.1649Z" fill="#A0A0A0"/>
<path d="M180.189 85.7462C178.581 85.8482 176.974 85.9021 175.372 85.7342C176.98 85.5062 178.587 85.4643 180.189 85.7462Z" fill="#A0A0A0"/>
<path d="M170.681 85.7338C169.074 85.8898 167.466 85.9018 165.858 85.7278C167.466 85.5059 169.074 85.4939 170.681 85.7338Z" fill="#A0A0A0"/>
<path d="M93.0905 43.6187C91.5909 43.6307 90.0973 43.6366 88.5977 43.6486C90.0973 43.2287 91.5909 43.2707 93.0905 43.6187Z" fill="#A0A0A0"/>
<path d="M150.172 85.7339C148.852 85.9078 147.538 85.8839 146.219 85.7459C147.538 85.482 148.852 85.5119 150.172 85.7339Z" fill="#A0A0A0"/>
<path d="M23.1836 121.053C24.4973 120.915 25.8109 120.921 27.1246 121.053C25.8109 121.305 24.4973 121.341 23.1836 121.053Z" fill="#A0A0A0"/>
<path d="M39.8894 1.30532C39.0256 1.50327 37.7899 1.16136 37.8619 2.70298C37.7239 1.08338 37.8079 1.02939 39.8894 1.30532Z" fill="#A0A0A0"/>
<path d="M44.0704 1.37695C43.0567 1.46092 42.0429 1.52691 41.0352 1.32296C42.0549 1.13101 43.0626 1.05902 44.0704 1.37695Z" fill="#A0A0A0"/>
<path d="M72.5693 80.4135C73.1392 80.0956 73.925 80.6415 74.3989 79.9517C74.039 81.1034 73.2172 80.4135 72.5693 80.4135Z" fill="#A0A0A0"/>
<path d="M125.35 8.11969C125.194 7.2919 125.032 6.4641 125.44 5.6543C125.494 6.47609 125.608 7.3039 125.35 8.11969Z" fill="#A0A0A0"/>
<path d="M159.02 83.7665C159.733 83.5686 160.441 83.6106 161.143 83.7905C160.435 83.9285 159.727 83.9345 159.02 83.7665Z" fill="#A0A0A0"/>
<path d="M26.2732 13.152C25.9973 12.4802 26.1232 11.7723 26.1052 11.0825C26.7651 11.7244 26.5131 12.4382 26.2732 13.152Z" fill="#A0A0A0"/>
<path d="M26.3027 17.0569C26.0148 16.415 26.0388 15.7732 26.2787 15.1313C26.5907 15.7672 26.5487 16.409 26.3027 17.0569Z" fill="#A0A0A0"/>
<path d="M37.9042 44.5786C37.9461 45.0885 37.9881 45.5984 38.0301 46.1022C37.5443 45.6344 37.7482 45.1065 37.9042 44.5786Z" fill="#A0A0A0"/>
<path d="M13.7361 1.37717C13.2322 1.40116 12.7343 1.41917 12.2305 1.44316C12.7223 1.06526 13.2262 1.17922 13.7361 1.37717Z" fill="#A0A0A0"/>
<path d="M26.2788 41.3875C26.0449 40.8416 26.0269 40.2957 26.3028 39.7559C26.5428 40.3017 26.5728 40.8476 26.2788 41.3875Z" fill="#A0A0A0"/>
<path d="M125.158 13.7759C125.2 13.434 125.248 13.0861 125.29 12.7441C125.41 13.11 125.812 13.512 125.158 13.7759Z" fill="#A0A0A0"/>
<path d="M0.353516 75.1885C0.755415 75.2245 1.16331 75.2605 1.56521 75.2964C1.14531 75.4884 0.725423 75.6264 0.353516 75.1885Z" fill="#A0A0A0"/>
<path d="M144.773 23.1813C144.839 22.8754 144.905 22.5755 144.965 22.2695C145.097 22.6174 145.235 22.9654 144.773 23.1813Z" fill="#A0A0A0"/>
<path d="M145.991 83.5264C146.303 83.5864 146.609 83.6523 146.921 83.7123C146.567 83.8743 146.207 84.0482 145.991 83.5264Z" fill="#A0A0A0"/>
<path d="M16.9633 1.51516C16.6633 1.47917 16.3634 1.44317 16.0635 1.40119C16.3874 1.23323 16.7053 1.14925 16.9633 1.51516Z" fill="#A0A0A0"/>
<path d="M55.8994 80.3535C56.1993 80.3835 56.4993 80.4135 56.7992 80.4435C56.4813 80.5995 56.1633 80.7194 55.8994 80.3535Z" fill="#A0A0A0"/>
<path d="M181.604 85.9381C181.311 85.8841 181.017 85.8301 180.723 85.7762C181.059 85.6022 181.382 85.4942 181.604 85.9381Z" fill="#A0A0A0"/>
<path d="M0.299765 95.1035C0.389743 95.4574 0.347754 95.7813 0.131808 96.0813C-0.0301518 95.7154 0.0898176 95.4034 0.299765 95.1035Z" fill="#A0A0A0"/>
<path d="M128.139 1.43132C127.851 1.46731 127.563 1.50329 127.275 1.54527C127.509 1.06539 127.827 1.27536 128.139 1.43132Z" fill="#A0A0A0"/>
<path d="M35.7686 120.723C35.7746 120.399 35.7806 120.075 35.7865 119.745C36.0265 120.075 35.9305 120.399 35.7686 120.723Z" fill="#A0A0A0"/>
<path d="M11.8887 121.06C12.1106 121.06 12.3386 121.06 12.5605 121.06C12.3386 121.222 12.1166 121.228 11.8887 121.06Z" fill="#A0A0A0"/>
<path d="M164.701 48.7893C164.671 48.8913 164.635 48.9993 164.605 49.1013C164.575 48.9933 164.545 48.8853 164.515 48.7773C164.575 48.7833 164.635 48.7833 164.701 48.7893Z" fill="#A0A0A0"/>
<path d="M19.3208 62.7056C19.3688 62.9635 19.2969 63.1794 19.1169 63.3594C19.0089 63.0895 19.0989 62.8795 19.3208 62.7056Z" fill="#A0A0A0"/>
<path d="M165.33 1.39528C165.115 1.41327 164.899 1.43128 164.683 1.44928C164.887 1.22133 165.103 1.19133 165.33 1.39528Z" fill="#A0A0A0"/>
<path d="M35.0664 121.071C35.2764 121.035 35.4923 121.005 35.7022 120.969C35.5583 121.389 35.3123 121.215 35.0664 121.071Z" fill="#A0A0A0"/>
<path d="M59.1982 80.4372C59.3902 80.4372 59.5822 80.4312 59.7741 80.4312C59.5822 80.6171 59.3902 80.6171 59.1982 80.4372Z" fill="#A0A0A0"/>
<path d="M127.894 123.585C127.69 123.621 127.492 123.657 127.288 123.699C127.432 123.375 127.654 123.453 127.894 123.585Z" fill="#A0A0A0"/>
<path d="M180.794 123.591C180.566 123.585 180.338 123.579 180.11 123.573C180.344 123.417 180.572 123.435 180.794 123.591Z" fill="#A0A0A0"/>
<path d="M9.83662 1.52092C9.80063 1.6229 9.77064 1.72486 9.73465 1.82684C9.70466 1.71886 9.66866 1.6109 9.63867 1.50293C9.70466 1.50893 9.77064 1.51493 9.83662 1.52092Z" fill="#A0A0A0"/>
<path d="M162.301 83.7843C162.499 83.7003 162.697 83.6103 162.901 83.5264C162.835 83.9163 162.577 83.8743 162.301 83.7843Z" fill="#A0A0A0"/>
<path d="M45.1738 1.52686C44.9758 1.49087 44.7839 1.4489 44.5859 1.4129C44.8199 1.25694 45.0358 1.19694 45.1738 1.52686Z" fill="#A0A0A0"/>
<path d="M181.622 1.53293C181.412 1.47895 181.208 1.42497 180.998 1.37098C181.274 1.16703 181.508 1.11904 181.622 1.53293Z" fill="#A0A0A0"/>
<path d="M13.376 121.054C13.5979 121.054 13.8199 121.054 14.0478 121.054C13.8259 121.216 13.5979 121.216 13.376 121.054Z" fill="#A0A0A0"/>
<path d="M146.147 88.8472C146.153 88.9731 146.153 89.0991 146.159 89.2191C145.992 89.0991 145.98 88.9731 146.147 88.8472Z" fill="#A0A0A0"/>
<path d="M19.1045 67.4507C19.2425 67.5707 19.2605 67.6966 19.1165 67.8286C19.1105 67.7026 19.1105 67.5767 19.1045 67.4507Z" fill="#A0A0A0"/>
<path d="M146.141 86.1602C146.141 86.2921 146.147 86.4241 146.147 86.556C145.979 86.4241 145.979 86.2921 146.141 86.1602Z" fill="#A0A0A0"/>
<path d="M19.1172 69.52C19.2552 69.646 19.2611 69.778 19.1232 69.9159C19.1232 69.778 19.1232 69.652 19.1172 69.52Z" fill="#A0A0A0"/>
<path d="M146.195 96.5796C146.201 96.6996 146.201 96.8195 146.207 96.9335C146.183 96.8555 146.147 96.7715 146.135 96.6876C146.129 96.6576 146.171 96.6156 146.195 96.5796Z" fill="#A0A0A0"/>
<path d="M156.333 83.7487C156.465 83.5988 156.597 83.6108 156.723 83.7607C156.591 83.7547 156.459 83.7547 156.333 83.7487Z" fill="#A0A0A0"/>
<path d="M37.8498 8.0415C37.8738 8.11372 37.9039 8.18593 37.916 8.25815C37.922 8.28222 37.8678 8.31834 37.8438 8.34241C37.8438 8.2401 37.8498 8.13779 37.8498 8.0415Z" fill="#A0A0A0"/>
<path d="M26.1348 46.0431C26.1829 45.9408 26.2311 45.8445 26.2792 45.7422C26.4898 45.9649 26.3875 46.0431 26.1348 46.0431Z" fill="#A0A0A0"/>
<path d="M70.4941 80.3774C70.5964 80.3835 70.6927 80.3895 70.789 80.3895C70.6807 80.5279 70.5844 80.5159 70.4941 80.3774Z" fill="#A0A0A0"/>
<path d="M60.9619 80.4254C61.0699 80.4254 61.1779 80.4194 61.2858 80.4194C61.1779 80.5634 61.0699 80.5694 60.9619 80.4254Z" fill="#A0A0A0"/>
<path d="M181.582 123.723C181.491 123.675 181.395 123.633 181.305 123.584C181.479 123.464 181.588 123.482 181.582 123.723Z" fill="#A0A0A0"/>
<path d="M37.9044 43.6787C37.9104 43.8047 37.9104 43.9246 37.9164 44.0506C37.7604 43.9246 37.7604 43.8047 37.9044 43.6787Z" fill="#A0A0A0"/>
<path d="M7.50405 55.6214C7.50405 55.5074 7.50405 55.3874 7.49805 55.2734C7.52204 55.3514 7.55804 55.4294 7.57004 55.5134C7.57603 55.5494 7.52805 55.5854 7.50405 55.6214Z" fill="#A0A0A0"/>
<path d="M6.54395 75.2904C6.65792 75.2784 6.77189 75.2664 6.89186 75.2544C6.78389 75.3804 6.67591 75.4164 6.54395 75.2904Z" fill="#A0A0A0"/>
<path d="M164.581 55.2617C164.587 55.3877 164.587 55.5137 164.593 55.6396C164.419 55.5197 164.407 55.3877 164.581 55.2617Z" fill="#A0A0A0"/>
<path d="M19.1285 74.271C19.2784 74.403 19.2545 74.5289 19.1045 74.6429C19.1105 74.5229 19.1165 74.397 19.1285 74.271Z" fill="#A0A0A0"/>
<path d="M154.437 137.327C160.646 136.901 165.258 142.198 165.24 147.842C165.222 154.183 160.55 158.369 154.527 158.753C149.146 159.095 143.844 153.631 143.91 148.142C143.976 142.557 148.013 136.799 154.437 137.327ZM156.705 148.256C156.741 146.528 156.081 145.677 154.683 145.641C153.459 145.611 152.236 146.78 152.26 147.956C152.29 149.348 153.333 150.475 154.617 150.499C155.883 150.523 156.675 149.678 156.705 148.256Z" fill="#E2E2E2"/>
<path d="M173.884 146.241C175.138 146.199 175.936 146.595 175.996 147.866C176.05 149.006 175.222 149.9 174.112 149.87C172.96 149.84 172.217 149.174 172.181 148.076C172.145 146.985 172.636 146.103 173.884 146.241Z" fill="#E2E2E2"/>
<path d="M134.792 146.241C135.968 146.175 136.7 146.685 136.748 147.891C136.796 149.049 136.208 149.756 135.008 149.822C133.898 149.888 132.825 149.007 132.927 148.017C133.041 146.979 133.526 146.157 134.792 146.241Z" fill="#E2E2E2"/>
<path d="M154.449 129.008C155.6 128.924 156.212 129.547 156.338 130.615C156.452 131.575 155.3 132.499 154.149 132.535C152.907 132.577 152.727 131.587 152.583 130.789C152.415 129.907 153.483 129.008 154.449 129.008Z" fill="#E2E2E2"/>
<path d="M156.075 165.143C156.285 166.408 155.313 166.762 154.347 166.984C153.675 167.14 152.409 165.868 152.529 165.197C152.709 164.159 153.267 163.289 154.401 163.289C155.433 163.295 156.189 163.853 156.075 165.143Z" fill="#E2E2E2"/>
<path d="M47.5554 148.04C48.1733 159.155 38.7076 168.321 27.9583 168.441C16.2552 168.573 7.12551 159.683 6.81358 148.616C6.48967 136.955 16.1473 127.903 27.2385 127.699C38.0538 127.495 48.8331 137.741 47.5554 148.04ZM28.5522 130.171C28.1563 130.459 28.2882 130.795 28.4802 131.13C28.4982 132.954 28.5282 134.784 28.5342 136.607C28.5342 136.985 28.4022 137.225 29.0141 137.351C30.8376 137.735 32.5592 138.449 33.9988 139.684C36.1463 141.532 37.7839 143.661 37.8079 146.691C37.8139 147.548 37.5019 148.454 38.0478 149.264C37.9518 149.546 37.8259 149.816 37.7719 150.104C37.238 152.833 35.9483 154.999 33.5669 156.594C31.7374 157.824 29.7819 158.544 27.6884 159.035C25.9848 159.131 24.4312 158.652 22.9136 157.926C16.2792 154.747 14.2457 146.589 19.4224 140.662C20.8441 139.036 22.6077 137.909 24.7791 137.489C25.6909 137.309 26.3507 136.919 26.2068 135.707C26.0508 134.388 26.0268 133.02 26.2008 131.706C26.4047 130.129 25.5289 130.051 24.4852 130.285C20.8861 131.1 17.4489 132.264 14.7856 135.047C13.9578 135.911 13.4239 136.979 12.6561 137.819C10.5207 140.164 9.89682 143.049 9.29097 145.977C9.165 146.571 9.38095 146.877 10.0648 146.847C11.1505 146.799 12.2422 146.823 13.328 146.835C14.1138 146.841 14.7556 147.326 14.8996 147.956C15.0495 148.61 14.1858 148.73 13.7179 149.018C13.19 149.348 12.5662 149.216 11.9843 149.216C8.93106 149.222 8.76311 149.444 9.63289 152.401C9.64489 152.443 9.69887 152.479 9.71086 152.521C12.1403 160.361 17.4969 164.812 25.5289 166.132C26.2428 166.252 26.9806 166.894 27.7244 166.174C28.4142 166.156 29.122 166.228 29.7999 166.108C37.9698 164.614 43.1405 159.809 45.102 151.765C45.8039 148.88 46.1518 149.21 43.1945 149.168C42.6007 149.162 42.0068 149.192 41.413 149.204C40.6931 147.404 40.8611 147.14 42.7386 147.128C43.1345 147.128 43.5424 147.062 43.9263 147.134C45.15 147.356 45.408 146.697 45.222 145.713C44.9521 144.297 44.6402 142.905 44.0943 141.532C41.425 134.879 36.5062 131.196 29.4879 130.171C29.278 130.039 29.074 129.919 28.8281 130.081C28.7141 130.081 28.6302 130.111 28.5522 130.171Z" fill="#E2E2E2"/>
<path d="M7.56964 161.495C8.61937 161.531 9.80708 163.168 9.25521 164.014C8.9013 164.56 9.09325 164.548 9.40518 164.884C9.84907 165.364 9.57913 165.97 9.12325 166.306C8.4934 166.774 7.98353 167.673 6.99378 167.271C6.094 166.906 5.6801 165.736 6.094 164.89C6.26796 164.53 5.90205 164.518 5.81207 164.332C5.24221 163.198 6.32795 161.453 7.56964 161.495Z" fill="black"/>
<path d="M47.8738 165.616C48.2937 166.018 49.2775 165.466 49.1755 166.444C49.0795 167.367 48.2937 167.001 47.7718 167.079C47.4359 167.127 47.076 167.121 46.7401 167.079C46.2782 167.025 45.6184 167.349 45.3964 166.839C45.1505 166.27 45.6124 165.748 45.9543 165.25C46.4282 164.56 47.5499 164.392 47.5679 163.33C47.25 163.09 47.082 163.342 46.872 163.432C46.3442 163.648 45.8883 163.606 45.6663 163.006C45.4324 162.365 45.9003 162.119 46.3622 161.909C47.262 161.495 48.1557 161.543 48.7676 162.359C49.3734 163.174 49.4334 164.092 48.6356 164.902C48.3957 165.136 48.1437 165.358 47.8738 165.616Z" fill="black"/>
<path d="M6.74164 132.697C6.81963 132.385 6.89761 132.007 7.00558 131.629C7.15554 131.113 7.3295 130.633 6.44172 130.735C5.40998 130.855 5.52995 130.231 5.84187 129.631C6.18978 128.953 6.70565 128.366 7.54544 128.396C8.40323 128.426 9.03308 128.935 9.36899 129.709C9.69891 130.477 9.29101 131.065 8.69116 131.485C8.16329 131.857 8.1273 132.343 8.1213 132.889C8.1153 133.392 7.89936 133.776 7.3415 133.746C6.71165 133.716 6.72365 133.236 6.74164 132.697ZM7.80938 130.285C7.69541 130.147 7.59943 129.973 7.55145 129.985C7.43747 130.009 7.3175 130.111 7.25752 130.219C7.15554 130.393 7.31751 130.483 7.44947 130.483C7.55145 130.483 7.65342 130.375 7.80938 130.285Z" fill="black"/>
<path d="M47.466 128.594C47.9518 128.84 48.6597 128.042 49.0436 128.738C49.4755 129.523 48.8756 130.081 48.3657 130.657C47.8859 131.191 47.9218 131.947 47.8139 132.631C47.7299 133.183 47.5319 133.572 46.8661 133.47C46.1883 133.368 46.3262 132.847 46.3622 132.439C46.4102 131.899 46.5662 131.371 46.6382 130.837C46.6802 130.525 46.8601 130.051 46.3322 130.015C45.6544 129.967 45.2945 129.739 45.4565 129.02C45.6304 128.252 46.2423 128.66 46.6742 128.6C46.9201 128.564 47.172 128.594 47.466 128.594Z" fill="black"/>
<path d="M17.8574 112.068C11.583 112.122 6.99414 106.777 6.91016 100.886C6.82618 94.8219 12.1289 89.6691 18.0134 89.7831C24.5458 89.9091 29.1706 94.9778 29.1466 101.144C29.1226 107.155 23.9819 112.104 17.8574 112.068Z" fill="#E2E2E2"/>
<path d="M136.01 9.57686C137.252 9.55886 138.499 10.7586 138.511 11.9823C138.529 13.3559 137.287 14.5496 135.836 14.5616C134.78 14.5736 133.598 13.3319 133.556 12.1682C133.502 10.8605 134.708 9.58886 136.01 9.57686Z" fill="#E2E2E2"/>
<path d="M175.39 12.1086C175.408 13.5002 174.526 14.5259 173.278 14.5559C171.869 14.5919 170.717 13.5182 170.669 12.1266C170.627 10.8549 171.893 9.5652 173.164 9.58319C174.52 9.60719 175.366 10.5609 175.39 12.1086Z" fill="#E2E2E2"/>
<path d="M135.842 38.3399C134.786 38.3579 133.49 36.9603 133.496 35.8206C133.508 34.6988 134.72 33.3792 135.776 33.3372C137.389 33.2772 138.493 34.219 138.535 35.6766C138.583 37.1942 137.455 38.31 135.842 38.3399Z" fill="#E2E2E2"/>
<path d="M171.809 55.7355C171.809 54.8957 171.797 54.0619 171.815 53.2221C171.833 52.3883 172.217 52.0224 173.11 52.0284C174.01 52.0284 174.232 52.5443 174.256 53.2281C174.304 54.8057 174.334 56.3833 174.298 57.9549C174.28 58.7227 174.034 59.4425 173.056 59.4305C172.085 59.4245 171.839 58.7707 171.833 57.9489C171.827 57.2111 171.833 56.4733 171.833 55.7355C171.821 55.7355 171.815 55.7355 171.809 55.7355Z" fill="#E2E2E2"/>
<path d="M172.81 70.2278C171.874 70.2937 171.358 69.5979 171.34 68.5962C171.316 67.4925 171.958 66.8746 173.11 66.8566C174.166 66.8446 174.706 67.5044 174.742 68.4102C174.784 69.4839 174.196 70.1858 172.81 70.2278Z" fill="#E2E2E2"/>
<path d="M156.704 148.256C156.674 149.678 155.888 150.524 154.611 150.5C153.321 150.476 152.277 149.348 152.253 147.956C152.229 146.787 153.453 145.617 154.677 145.641C156.074 145.677 156.74 146.529 156.704 148.256Z" fill="black"/>
<path d="M27.7182 166.174C26.9744 166.893 26.2365 166.246 25.5227 166.132C17.4907 164.812 12.1341 160.361 9.70466 152.521C9.69267 152.479 9.63868 152.443 9.62668 152.401C8.7569 149.45 8.92485 149.222 11.9781 149.216C12.5659 149.216 13.1838 149.342 13.7117 149.018C14.1735 148.73 15.0433 148.61 14.8934 147.956C14.7494 147.32 14.1016 146.84 13.3218 146.834C12.236 146.828 11.1443 146.798 10.0586 146.846C9.36875 146.876 9.1588 146.577 9.28477 145.977C9.89062 143.049 10.5085 140.164 12.6499 137.819C13.4177 136.979 13.9516 135.911 14.7794 135.047C17.4487 132.264 20.8799 131.1 24.479 130.285C25.5287 130.045 26.3985 130.129 26.1946 131.706C26.0206 133.02 26.0446 134.388 26.2006 135.707C26.3445 136.925 25.6847 137.315 24.7729 137.489C22.5954 137.915 20.8319 139.036 19.4162 140.662C14.2455 146.589 16.273 154.746 22.9074 157.926C24.425 158.652 25.9846 159.137 27.6822 159.035C27.7302 160.049 27.7482 161.027 28.594 161.837C29.2358 162.461 29.1218 163.33 28.492 163.93C27.8141 164.578 27.6582 165.316 27.7182 166.174Z" fill="black"/>
<path d="M38.0422 149.258C37.4964 148.448 37.8083 147.542 37.8023 146.685C37.7783 143.655 36.1467 141.526 33.9932 139.678C32.5536 138.443 30.832 137.729 29.0085 137.345C28.3966 137.219 28.5286 136.973 28.5286 136.601C28.5226 134.778 28.4926 132.948 28.4746 131.125C28.4986 130.807 28.5226 130.489 28.5466 130.165C28.6246 130.105 28.7146 130.075 28.8105 130.081C29.0325 130.111 29.2544 130.141 29.4704 130.171C36.4826 131.197 41.4014 134.88 44.0767 141.532C44.6286 142.9 44.9345 144.291 45.2044 145.713C45.3904 146.691 45.1325 147.357 43.9088 147.135C43.5249 147.063 43.117 147.129 42.7211 147.129C40.8435 147.141 40.6756 147.405 41.3954 149.204C40.2857 149.354 39.158 148.808 38.0422 149.258Z" fill="black"/>
<path d="M38.042 149.258C39.1578 148.808 40.2855 149.354 41.4072 149.204C42.0011 149.192 42.5949 149.156 43.1887 149.168C46.146 149.204 45.7981 148.88 45.0963 151.765C43.1408 159.809 37.9641 164.608 29.7941 166.108C29.1223 166.234 28.4144 166.156 27.7186 166.174C27.6586 165.316 27.8146 164.578 28.4924 163.93C29.1223 163.324 29.2422 162.455 28.5944 161.837C27.7546 161.021 27.7366 160.049 27.6826 159.035C29.7761 158.544 31.7316 157.824 33.5612 156.594C35.9426 154.993 37.2322 152.827 37.7661 150.104C37.8201 149.81 37.9461 149.54 38.042 149.258Z" fill="#A0A0A0"/>
<path d="M28.5519 130.171C28.5279 130.489 28.5039 130.807 28.4799 131.131C28.288 130.789 28.156 130.459 28.5519 130.171Z" fill="#A0A0A0"/>
<path d="M29.4762 130.171C29.2543 130.141 29.0324 130.111 28.8164 130.081C29.0623 129.925 29.2723 130.039 29.4762 130.171Z" fill="#A0A0A0"/>
<path d="M7.80911 130.285C7.65315 130.375 7.55118 130.483 7.44921 130.483C7.31724 130.483 7.16127 130.393 7.25725 130.219C7.31723 130.117 7.43721 130.015 7.55118 129.985C7.59917 129.973 7.69514 130.153 7.80911 130.285Z" fill="#A0A0A0"/>
</svg>
